<svg id="Group_70" data-name="Group 70" xmlns="http://www.w3.org/2000/svg" xmlns:xlink="http://www.w3.org/1999/xlink" width="101.802" height="28.319" viewBox="0 0 101.802 28.319">
  <defs>
    <linearGradient id="linear-gradient" x1="0.869" y1="1" x2="-0.108" y2="-0.116" gradientUnits="objectBoundingBox">
      <stop offset="0" stop-color="#fff"/>
      <stop offset="1" stop-color="#0c2029"/>
    </linearGradient>
  </defs>
  <path id="Path_68072" data-name="Path 68072" d="M5.415.24A3.352,3.352,0,0,0,8.46-1.29h.03L8.64,0H10.5V-5.76H6.03v1.95H8.04v.03A2.2,2.2,0,0,1,5.715-1.905c-1.68,0-2.7-1.455-2.7-3.42S3.9-8.745,5.67-8.745a1.976,1.976,0,0,1,2.085,1.53h2.58c-.345-2.25-1.995-3.72-4.755-3.72A4.994,4.994,0,0,0,1.905-9.51,5.837,5.837,0,0,0,.315-5.325,5.921,5.921,0,0,0,1.755-1.26,4.808,4.808,0,0,0,5.415.24ZM11.655,0H14.31V-10.725H11.655ZM20.31.24a3.352,3.352,0,0,0,3.045-1.53h.03L23.535,0H25.4V-5.76h-4.47v1.95h2.01v.03A2.2,2.2,0,0,1,20.61-1.905c-1.68,0-2.7-1.455-2.7-3.42s.885-3.42,2.655-3.42a1.976,1.976,0,0,1,2.085,1.53h2.58c-.345-2.25-1.995-3.72-4.755-3.72A4.994,4.994,0,0,0,16.8-9.51a5.837,5.837,0,0,0-1.59,4.185A5.921,5.921,0,0,0,16.65-1.26,4.808,4.808,0,0,0,20.31.24ZM25.77,0h3.015L30.87-3.63h.03L32.91,0h3.135L32.49-5.655l3.18-5.07H32.79l-1.845,3.12h-.03L29.1-10.725H26.07l3.255,5.1ZM36.9,0H37.9V-4.665H40.98c2.25,0,3.4-1.08,3.4-3.06a2.888,2.888,0,0,0-.75-2.07,3.238,3.238,0,0,0-2.52-.93H36.9ZM37.9-5.52V-9.84h3.09c1.545,0,2.37.765,2.37,2.145,0,1.35-.72,2.175-2.46,2.175ZM43.725,0h1.02l1.26-3.375H50.67L51.915,0h1.08l-4.08-10.725h-1.14Zm2.58-4.2,1.5-4.005c.24-.645.525-1.56.525-1.56h.03s.315.96.54,1.56L50.37-4.2ZM54.93-.885V-9.84h2.775c2.565,0,3.57,1.8,3.57,4.515S60.165-.885,57.6-.885ZM53.925,0H57.63c3.165,0,4.695-2.145,4.695-5.325s-1.425-5.4-4.59-5.4h-3.81Z" transform="translate(39.477 19.16)" fill="#fff"/>
  <g id="Group_73" data-name="Group 73" transform="translate(0)">
    <g id="Group_15" data-name="Group 15" transform="translate(16.572)">
      <path id="Path_10" data-name="Path 10" d="M404.034,530.927a3.466,3.466,0,0,1-2.452-5.916l5.513-5.518a3.467,3.467,0,0,1,4.9,4.9l-5.513,5.518A3.456,3.456,0,0,1,404.034,530.927Z" transform="translate(-400.567 -518.476)" fill="#fff"/>
    </g>
    <g id="Group_18" data-name="Group 18" transform="translate(29.013 28.314) rotate(180)" opacity="0.5">
      <path id="Path_13" data-name="Path 13" d="M8.984,12.445a3.455,3.455,0,0,1-2.45-1.014L1.017,5.918a3.466,3.466,0,1,1,4.9-4.9l5.518,5.513a3.467,3.467,0,0,1-2.45,5.918Z" transform="translate(0 0)" fill="url(#linear-gradient)"/>
    </g>
    <g id="Group_21" data-name="Group 21" transform="translate(0 0)">
      <path id="Path_10-2" data-name="Path 10" d="M409.547,530.927A3.466,3.466,0,0,0,412,525.01l-5.513-5.518a3.467,3.467,0,0,0-4.9,4.9l5.513,5.518A3.456,3.456,0,0,0,409.547,530.927Z" transform="translate(-400.567 -518.476)" fill="#fff"/>
    </g>
    <g id="Group_22" data-name="Group 22" transform="translate(12.446 28.319) rotate(180)">
      <path id="Path_10-3" data-name="Path 10" d="M3.466,12.451A3.466,3.466,0,0,1,1.014,6.534L6.527,1.016a3.467,3.467,0,0,1,4.9,4.9L5.919,11.434A3.456,3.456,0,0,1,3.466,12.451Z" transform="translate(0 0)" fill="#fff"/>
    </g>
  </g>
</svg>
