<svg xmlns="http://www.w3.org/2000/svg" width="12.758" height="12.758" viewBox="0 0 12.758 12.758">
  <path id="Icon_ionic-ios-paper" data-name="Icon ionic-ios-paper" d="M5.706,4.356v9.875a.431.431,0,0,1-.429.429h0a.431.431,0,0,1-.429-.429V5.338H4.356a.98.98,0,0,0-.981.981v8.832a.98.98,0,0,0,.981.981H15.185a.948.948,0,0,0,.948-.948V4.356a.98.98,0,0,0-.981-.981l-8.526.061A.879.879,0,0,0,5.706,4.356Zm2.024.981h2.576a.431.431,0,0,1,.429.429h0a.431.431,0,0,1-.429.429H7.73A.431.431,0,0,1,7.3,5.767h0A.431.431,0,0,1,7.73,5.338Zm0,4.907h4.539a.431.431,0,0,1,.429.429h0a.431.431,0,0,1-.429.429H7.73a.431.431,0,0,1-.429-.429h0A.431.431,0,0,1,7.73,10.245Zm6.011,3.312H7.73a.431.431,0,0,1-.429-.429h0A.431.431,0,0,1,7.73,12.7h6.011a.431.431,0,0,1,.429.429h0A.431.431,0,0,1,13.741,13.557Zm0-4.907H7.73A.431.431,0,0,1,7.3,8.221h0a.431.431,0,0,1,.429-.429h6.011a.431.431,0,0,1,.429.429h0A.431.431,0,0,1,13.741,8.65Z" transform="translate(-3.375 -3.375)" fill="#e25a5a"/>
</svg>
